<svg id="visual" viewBox="0 0 900 600" width="900" height="600" xmlns="http://www.w3.org/2000/svg" xmlns:xlink="http://www.w3.org/1999/xlink" version="1.1"><rect x="0" y="0" width="900" height="600" fill="#141414"></rect><defs><linearGradient id="grad1_0" x1="33.3%" y1="0%" x2="100%" y2="100%"><stop offset="20%" stop-color="#141414" stop-opacity="1"></stop><stop offset="80%" stop-color="#141414" stop-opacity="1"></stop></linearGradient></defs><defs><linearGradient id="grad2_0" x1="0%" y1="0%" x2="66.7%" y2="100%"><stop offset="20%" stop-color="#141414" stop-opacity="1"></stop><stop offset="80%" stop-color="#141414" stop-opacity="1"></stop></linearGradient></defs><g transform="translate(900, 0)"><path d="M0 216.3C-27.1 208.8 -54.1 201.3 -78.8 190.3C-103.5 179.4 -125.8 164.9 -147.1 147.1C-168.3 129.2 -188.5 107.9 -199.9 82.8C-211.2 57.7 -213.8 28.8 -216.3 0L0 0Z" fill="#7C01B4"></path></g><g transform="translate(0, 600)"><path d="M0 -216.3C24.5 -204.4 49 -192.4 76.2 -183.9C103.3 -175.3 133.2 -170.1 153 -153C172.7 -135.8 182.4 -106.7 191.2 -79.2C200.1 -51.7 208.2 -25.9 216.3 0L0 0Z" fill="#7C01B4"></path></g></svg>